<?xml version="1.0" encoding="UTF-8" standalone="no"?>
<!-- Created with Inkscape (http://www.inkscape.org/) -->

<svg
   width="210mm"
   height="297mm"
   viewBox="0 0 210 297"
   version="1.1"
   id="svg5"
   inkscape:version="1.1 (c68e22c387, 2021-05-23)"
   sodipodi:docname="pokeball.svg"
   xmlns:inkscape="http://www.inkscape.org/namespaces/inkscape"
   xmlns:sodipodi="http://sodipodi.sourceforge.net/DTD/sodipodi-0.dtd"
   xmlns="http://www.w3.org/2000/svg"
   xmlns:svg="http://www.w3.org/2000/svg"
   xmlns:rdf="http://www.w3.org/1999/02/22-rdf-syntax-ns#"
   xmlns:cc="http://creativecommons.org/ns#"
   xmlns:dc="http://purl.org/dc/elements/1.1/">
  <title
     id="title877">pokeball</title>
  <sodipodi:namedview
     id="namedview7"
     pagecolor="#ffffff"
     bordercolor="#111111"
     borderopacity="1"
     inkscape:pageshadow="0"
     inkscape:pageopacity="0"
     inkscape:pagecheckerboard="1"
     inkscape:document-units="mm"
     showgrid="false"
     inkscape:zoom="0.38425619"
     inkscape:cx="27.325519"
     inkscape:cy="560.82375"
     inkscape:window-width="1440"
     inkscape:window-height="837"
     inkscape:window-x="-8"
     inkscape:window-y="-8"
     inkscape:window-maximized="1"
     inkscape:current-layer="layer1">
    <inkscape:grid
       type="xygrid"
       id="grid886" />
  </sodipodi:namedview>
  <defs
     id="defs2" />
  <g
     inkscape:label="Capa 1"
     inkscape:groupmode="layer"
     id="layer1">
    <path
       style="fill:#040404;stroke:none;stroke-width:0.264583"
       d="M 99.27272,72.249806 C 81.581095,74.572848 65.45871,79.359425 51.39346,90.974897 39.280041,100.97879 29.864579,113.92009 24.578733,128.75845 c -12.511088,35.12105 0.230188,76.7834 31.037742,98.15379 8.665368,6.01107 18.331656,10.53571 28.575,13.09661 10.166614,2.54159 21.594485,3.32026 32.014575,1.91665 38.61117,-5.20145 70.05029,-37.15914 73.77377,-76.12539 4.0603,-42.48943 -24.60493,-82.3833 -66.36544,-91.658004 -7.61153,-1.690687 -16.54228,-2.916237 -24.34166,-1.8923 m 5.29166,13.721821 c 4.64423,-0.525463 9.98035,0.573616 14.55209,1.399646 19.11958,3.454399 36.81703,15.629727 47.04503,32.126757 4.47278,7.21413 7.84966,15.21804 9.57501,23.54792 0.29659,1.43166 2.15238,7.54618 0.22621,8.11794 -1.35202,0.40137 -3.05673,0.0119 -4.45875,0.10769 -3.73671,0.25611 -7.37579,0.25611 -11.1125,0 -5.59038,-0.38259 -11.32893,-0.0236 -16.93334,-0.0236 h -7.67291 c -0.87948,0 -2.27859,0.25453 -3.04298,-0.27199 -0.9906,-0.68236 -1.25862,-2.63631 -1.66952,-3.69676 -0.90725,-2.34156 -2.08068,-4.62598 -3.62558,-6.61458 -6.77889,-8.7257 -15.9512,-11.58478 -26.58692,-11.10218 -7.692227,0.34925 -15.69111,6.71538 -19.5617,12.95426 -1.068387,1.72164 -2.006864,3.63961 -2.662502,5.55625 -0.289718,0.84719 -0.488156,2.33548 -1.244864,2.90301 -1.610783,1.20808 -6.81064,0.27199 -8.810096,0.27199 -8.120327,0 -16.239596,0.26458 -24.341667,0.26458 h -6.879166 c -0.769938,0 -2.102909,0.2413 -2.750873,-0.27199 -1.271323,-1.007 0.162454,-5.26256 0.391054,-6.60717 1.185598,-6.97177 3.469481,-13.91524 6.894512,-20.10834 9.203003,-16.64044 23.706138,-29.4878 42.031973,-35.182692 6.861969,-2.132541 13.585297,-2.572808 20.637489,-3.370791 m -2.38125,55.301613 c 2.46089,-0.35454 5.30437,-0.20056 7.67292,0.5416 16.14593,5.0591 14.29676,29.37986 -2.64583,31.58172 -2.32834,0.30242 -4.90988,0.13838 -7.14375,-0.59028 -15.367525,-5.01386 -14.506306,-29.13751 2.11666,-31.53304 m 73.81875,22.14567 c -0.5834,7.39008 -2.54661,14.88863 -5.4819,21.69583 -16.50127,38.26854 -63.51138,54.62694 -100.086839,34.84325 -15.799064,-8.54552 -27.907721,-22.90842 -33.77565,-39.87033 -1.898385,-5.48772 -2.208212,-11.11409 -3.5306,-16.66875 h 30.95625 8.995834 c 1.164431,0 2.843477,-0.30189 3.93356,0.15955 1.19089,0.50456 1.408642,2.47226 1.850496,3.54462 1.225285,2.97312 2.72071,5.69568 4.747683,8.20208 6.272477,7.75679 14.93176,9.90124 24.393256,9.78853 8.31797,-0.099 16.12159,-6.105 20.5859,-12.69895 1.27159,-1.87827 2.16959,-3.96292 2.94799,-6.08541 0.31115,-0.84879 0.49742,-2.32886 1.41049,-2.75087 0.97923,-0.45244 2.57334,-0.15955 3.63062,-0.15955 h 8.73125 z"
       id="path775" />
    <path
       style="fill:#aa0000;stroke-width:9.3505513;stroke:#aa0000;stroke-opacity:1;stroke-miterlimit:4;stroke-dasharray:none"
       d="m 132.18159,567.2931 c -3.01489,-7.85667 11.66988,-62.15241 22.71692,-83.99401 16.39419,-32.41368 36.18924,-59.05503 61.40656,-82.64459 45.58863,-42.64593 93.69196,-64.20902 159.67252,-71.57578 32.11575,-3.58574 40.32096,-3.1995 72.31173,3.40386 86.66524,17.88897 153.03836,68.80018 190.29954,145.96843 16.64924,34.4807 31.65247,84.69722 26.2794,87.95827 -4.22451,2.56393 -41.27053,3.61203 -102.58601,2.90236 l -59.70406,-0.69102 -7.69055,-17.87712 c -9.59484,-22.30382 -29.2965,-41.80486 -53.24056,-52.69844 -24.04605,-10.93997 -70.50943,-11.92793 -90.59754,-1.92639 -19.44946,9.68357 -46.35587,38.19354 -53.36419,56.54457 -3.3518,8.77656 -7.11131,16.04101 -8.35446,16.14323 -1.24316,0.1022 -36.67148,0.9471 -78.72962,1.87751 -62.7975,1.38921 -76.81803,0.78296 -78.41968,-3.39088 z"
       id="path1818"
       transform="scale(0.26458333)" />
  </g>
  <metadata
     id="metadata875">
    <rdf:RDF>
      <cc:Work
         rdf:about="">
        <dc:title>pokeball</dc:title>
      </cc:Work>
    </rdf:RDF>
  </metadata>
</svg>
